HIERARCHY
ROOT pelvis
{
  OFFSET 0 100 0
  CHANNELS 6 Xposition Yposition Zposition Zrotation Xrotation Yrotation
  JOINT pelvis_right_femur
  {
    OFFSET -10.78128 -3.44521 -0.5502486
    CHANNELS 3 Zrotation Xrotation Yrotation
    JOINT right_femur_tibia
    {
      OFFSET -0.8047443 -44.0398 -0.1307829
      CHANNELS 3 Zrotation Xrotation Yrotation
      JOINT right_tibia_foot
      {
        OFFSET 3.006224 -47.83518 -5
        CHANNELS 3 Zrotation Xrotation Yrotation
        End Site
        {
          OFFSET 0 -5 15
        }
      }
    }
  }
  JOINT pelvis_left_femur
  {
    OFFSET 10.78128 -3.44521 -0.5502486
    CHANNELS 3 Zrotation Xrotation Yrotation
    JOINT left_femur_tibia
    {
      OFFSET 0.8047443 -44.0398 -0.1307829
      CHANNELS 3 Zrotation Xrotation Yrotation
      JOINT left_tibia_foot
      {
        OFFSET -4.370144 -48.10324 -4.275266
        CHANNELS 3 Zrotation Xrotation Yrotation
        End Site
        {
          OFFSET 0 -5 15
        }
      }
    }
  }
  JOINT pelvis_spine1
  {
    OFFSET 0 6.468898 -3.129235
    CHANNELS 3 Zrotation Xrotation Yrotation
    JOINT spine1
    {
      OFFSET 0 23.15396 4.99043
      CHANNELS 3 Zrotation Xrotation Yrotation
      JOINT spine2
      {
        OFFSET 0 20.79997 -5.064912
        CHANNELS 3 Zrotation Xrotation Yrotation
        JOINT neck
        {
          OFFSET 0 14.38658 9.616178
          CHANNELS 3 Zrotation Xrotation Yrotation
          End Site
          {
            OFFSET 0 20 0
          }
        }
      }
      JOINT right_manubrium
      {
        OFFSET -5.722621 16.35077 3.967754
        CHANNELS 3 Zrotation Xrotation Yrotation
        JOINT right_clavicle
        {
          OFFSET -13.16364 1.694482 -4.693211
          CHANNELS 3 Zrotation Xrotation Yrotation
          JOINT right_humerus
          {
            OFFSET -28.5034 -0.3100689 -2.792744
            CHANNELS 3 Zrotation Xrotation Yrotation
            JOINT right_radius
            {
              OFFSET -25.15693 0.02248979 -1.271978
              CHANNELS 3 Zrotation Xrotation Yrotation
              End Site
              {
                OFFSET -15 0 0
              }
            }
          }
        }
      }
      JOINT left_manubrium
      {
        OFFSET 5.722621 16.35077 3.967754
        CHANNELS 3 Zrotation Xrotation Yrotation
        JOINT left_clavicle
        {
          OFFSET 13.16364 1.694482 -4.693211
          CHANNELS 3 Zrotation Xrotation Yrotation
          JOINT left_humerus
          {
            OFFSET 29.39168 -1.063119 -2.237045
            CHANNELS 3 Zrotation Xrotation Yrotation
            JOINT left_radius
            {
              OFFSET 24.59957 -0.9528479 0.9047498
              CHANNELS 3 Zrotation Xrotation Yrotation
              End Site
              {
                OFFSET 15 -0 -0
              }
            }
          }
        }
      }
    }
  }
}
MOTION
Frames: 9
Frame Time: 0.0416666666667
0 103.5113 0 1.12401 -2.12373 0.09405521 3.101832 -15.77557 7.981199 -0 37.07373 -0 -6.026672 -15.13565 -3.990185 -6.924211 12.24886 -23.07852 -0 4.642446 -0 7.127947 -17.46808 25.93561 -4.184457 -4.80353 3.717944 3.391859 8.079684 -9.679846 0.7631752 20.33483 8.987709 3.8973 -26.67183 10.70993 6.209725 -19.78048 12.37955 83.2921 30.36102 -17.71546 -0 0 20.99457 -10.15166 9.412592 4.149503 10.01988 -21.31828 5.144172 -94.40817 19.27891 20.06749 0 0 -6.626986 12.36179 19.81943 -4.224781
0.1965849 103.2446 1.671676 0.6292964 -1.424824 0.1316983 3.718101 -19.53897 7.809837 -0 37.05224 -0 -6.03896 -13.7874 -3.747629 -6.613593 12.88869 -22.99947 -0 5.388455 -0 5.039522 -19.65871 24.93643 -3.968054 -4.649832 3.551127 3.526593 7.936523 -9.749341 0.7768559 19.98379 9.100827 4.085237 -26.90958 10.68747 6.16624 -19.39446 12.30773 83.37537 30.54122 -18.02531 -0 0 20.40237 -10.10295 9.629404 4.325196 10.13051 -21.5323 5.079321 -94.0646 19.1584 19.56011 0 0 -7.843478 12.29615 19.51641 -3.946213
0.3999221 102.8929 3.569288 0.04531737 -0.3781168 0.1663976 4.733108 -24.2004 7.548982 -0 34.50771 -0 -5.960192 -12.43022 -3.269919 -6.234888 13.06786 -22.1792 -0 5.893511 -0 5.027643 -20.93752 24.0934 -3.103888 -3.489401 3.292569 3.954016 7.984501 -9.475246 0.8515911 19.46577 9.082263 4.261189 -27.69708 10.70957 5.969278 -18.43844 12.10782 84.48842 33.10353 -19.13409 -0 0 16.69611 -8.55915 9.604804 4.496929 9.378138 -21.82966 3.331951 -92.04886 19.46003 17.57398 0 0 -14.33516 13.47419 16.72769 -4.139181
0.6280647 102.4505 5.757401 -0.4676089 1.047132 0.2329612 5.678585 -28.68714 7.43196 -0 30.83484 -0 -5.59344 -11.18855 -2.813055 -5.91718 13.15819 -21.25922 -0 6.128624 -0 4.857701 -22.28735 22.96358 -2.757101 -3.213285 3.220265 4.034541 8.027213 -9.462805 0.9132942 19.19516 8.999483 4.346715 -27.8643 10.61087 5.900371 -18.10451 11.97572 84.87907 33.45086 -19.67527 -0 0 15.77743 -8.377056 9.787418 4.603857 9.265832 -22.02002 2.868058 -91.66714 19.65181 17.18588 0 0 -15.88151 13.3766 16.14419 -3.586476
0.8904488 101.8735 8.386527 -0.8696945 2.507615 0.3720024 6.487496 -32.56501 7.038334 -0 25.76906 -0 -5.28889 -9.516849 -2.292249 -5.714312 13.29947 -19.99078 -0 6.417279 -0 4.985299 -23.33244 21.71038 -2.359203 -2.886962 3.087448 4.143411 8.033258 -9.491136 0.9570769 18.85105 8.951667 4.482845 -28.06233 10.47654 5.790243 -17.66637 11.83019 85.35925 33.74503 -20.35609 -0 0 14.68015 -8.344177 10.05747 4.802951 9.185421 -22.26347 2.375814 -91.172 19.83131 16.61798 0 0 -17.64003 13.15898 15.42945 -2.911803
1.175975 101.1671 11.57528 -1.179472 3.89376 0.6368428 7.10206 -35.45539 6.476555 -0 20.37306 -0 -5.106891 -7.417632 -1.831151 -5.596399 13.67666 -18.61047 -0 7.013454 -0 4.631063 -24.13407 20.16681 -2.040617 -2.65339 2.965458 4.225848 8.022177 -9.547087 0.987769 18.56017 8.909978 4.602709 -28.19975 10.33869 5.695414 -17.30541 11.7101 85.72975 33.8071 -20.93119 -0 0 13.89838 -8.453471 10.32329 4.986927 9.164404 -22.46139 2.037939 -90.85578 19.99008 16.22124 0 0 -18.78899 12.83777 14.9562 -2.253858
1.458893 100.3789 15.41815 -1.474133 4.976023 1.071884 7.586026 -37.01434 5.83389 -0 15.74079 -0 -5.228708 -5.019019 -1.490629 -5.474992 14.34959 -17.23437 -0 8.414721 -0 3.470114 -24.3506 18.26448 -1.719698 -2.39436 2.831352 4.308935 8.018845 -9.607153 1.005153 18.28833 8.864861 4.718148 -28.31388 10.17683 5.583917 -16.92678 11.59663 86.15313 33.85253 -21.54751 -0 0 13.0417 -8.643425 10.60227 5.208674 9.118525 -22.6503 1.656276 -90.49428 20.16667 15.77616 0 0 -19.95376 12.46331 14.41076 -1.56324
1.715153 99.62136 19.94383 -1.859189 5.593087 1.679441 8.096052 -37.11019 5.349964 -0 12.95826 -0 -5.70478 -2.812515 -1.319317 -5.218607 15.1448 -16.00122 -0 11.1859 -0 1.353079 -23.58308 15.9868 -1.433076 -2.127337 2.725674 4.367223 8.062246 -9.641053 1.011721 18.10409 8.790718 4.793131 -28.35476 9.996646 5.476917 -16.58691 11.50382 86.61235 33.9235 -22.14159 -0 0 12.17175 -8.870312 10.84823 5.43422 9.005199 -22.79303 1.213887 -90.12924 20.38568 15.37018 0 0 -21.02074 12.07703 13.82298 -0.8843269
1.938887 99.05624 25.09882 -2.36565 5.615927 2.379999 8.702732 -35.74431 5.135619 -0 12.47194 -0 -6.515247 -1.398182 -1.304936 -4.754246 15.63131 -14.93984 -0 15.93721 -0 -1.321238 -21.4726 13.54511 -1.187156 -1.845486 2.673343 4.382984 8.186255 -9.62689 1.009497 18.04306 8.664829 4.810733 -28.28092 9.785222 5.383323 -16.29612 11.4348 87.12739 34.05836 -22.71023 -0 0 11.26703 -9.131598 11.05281 5.663902 8.785639 -22.87673 0.6656807 -89.76324 20.68147 15.03685 0 0 -21.99356 11.66683 13.16744 -0.1779696
